<svg width="355" height="276" viewBox="0 0 355 276" fill="none" xmlns="http://www.w3.org/2000/svg">
<g clip-path="url(#clip0_38_4)">
<path d="M137.147 78.1799C137.147 78.1799 143.075 120.277 133.955 125.004C124.835 129.731 188.219 130.159 188.219 130.159C188.219 130.159 174.083 93.6448 180.467 82.4747L137.147 78.1799Z" fill="#FFB9B9"/>
<path d="M160.632 100.553C178.009 100.553 192.096 87.2826 192.096 70.9124C192.096 54.5422 178.009 41.2716 160.632 41.2716C143.255 41.2716 129.168 54.5422 129.168 70.9124C129.168 87.2826 143.255 100.553 160.632 100.553Z" fill="#FFB9B9"/>
<path d="M234.502 130.372L229.231 152.984L218.085 200.826L217.751 203.446L213.905 233.778L211.346 253.927L209.63 267.463C199.199 272.513 191.638 276 191.638 276C191.638 276 190.988 272.929 189.94 268.999C182.619 271.066 169.073 274.497 157.593 275.182C161.773 279.571 97.2119 167.915 94.7345 152.984C92.7406 140.969 91.2431 130.815 90.9265 128.655C90.8837 128.373 90.8623 128.227 90.8623 128.227L138.968 108.202C142.386 115.672 158.35 117.917 158.35 117.917C171.576 117.058 181.943 110.488 181.943 110.488L234.502 130.372Z" fill="#2C7BE5"/>
<path d="M134.456 42.8751L128.573 40.6581C128.573 40.6581 140.874 27.9003 157.988 29.0092L153.175 24.017C153.175 24.017 164.941 19.5796 175.638 31.2281C181.26 37.3513 187.766 44.5491 191.822 52.657H198.122L195.493 58.1115L204.696 63.5659L195.25 62.586C195.813 65.5729 195.899 68.6222 195.506 71.6331C195.101 74.6452 193.47 77.3913 190.956 79.2916C190.956 79.2916 183.66 65.0629 183.66 62.846V68.3928C183.66 68.3928 177.778 63.4006 177.778 60.0724L174.569 63.9553L172.964 57.8539L153.176 63.9553L156.385 58.9632L144.084 60.6271L148.898 54.5257C148.898 54.5257 134.992 61.7367 134.457 67.8381C133.923 73.9395 129.853 79.7213 129.853 79.7213C129.853 79.7213 118.946 51.1954 134.456 42.8751Z" fill="#090814"/>
<path d="M268.702 234.33C265.498 237.603 257.556 242.532 247.929 247.869C244.348 249.852 240.536 251.896 236.646 253.927C227.366 258.776 217.649 263.581 209.631 267.463C199.199 272.513 191.639 276 191.639 276C191.639 276 190.988 272.929 189.94 268.999C188.537 263.738 186.423 256.938 184.219 253.927C184.142 253.823 184.065 253.726 183.988 253.629C183.347 252.835 182.701 252.372 182.063 252.372L213.905 233.778L227.665 225.74L217.752 203.446L205.318 175.48L212.823 152.984L220.366 130.372H234.503C234.503 130.372 239.184 139.997 245.169 153.42C246.064 155.427 246.988 157.519 247.929 159.68C260.243 187.895 275.597 227.294 268.702 234.33Z" fill="#2C7BE5"/>
<path d="M126.431 253.661C125.27 253.657 124.111 253.746 122.966 253.927C113.129 255.52 110.228 263.908 109.402 269.527C109.138 271.243 109.038 272.977 109.103 274.71L100.413 268.414L97.2464 266.121C89.6261 263.617 82.8358 259.172 76.9483 253.927C71.8408 249.298 67.2592 244.179 63.2779 238.655C59.3123 233.21 55.7771 227.498 52.7009 221.564C51.8426 219.909 51.3812 218.095 51.3494 216.253C51.3176 214.41 51.7162 212.584 52.5169 210.903L63.2779 188.31L79.0063 155.29C79.1204 154.504 79.2474 153.736 79.3871 152.984C82.5063 136.136 90.8626 128.655 90.8626 128.655H97.2464L101.517 152.984L106.822 183.211L103.104 194.635L94.5123 221.016L102.723 229.416L126.431 253.661Z" fill="#2C7BE5"/>
<path d="M258.069 267.392V269.839C258.071 270.51 257.939 271.176 257.68 271.802C257.565 272.081 257.426 272.35 257.265 272.608C256.755 273.414 256.032 274.082 255.165 274.546C254.299 275.009 253.32 275.253 252.323 275.252H61.258C60.2617 275.253 59.2823 275.009 58.416 274.546C57.5496 274.082 56.826 273.414 56.3161 272.608C56.1548 272.35 56.016 272.081 55.9011 271.802C55.6423 271.176 55.5103 270.51 55.5117 269.839V267.392C55.5115 266.681 55.66 265.977 55.9487 265.32C56.2374 264.664 56.6606 264.067 57.1943 263.564C57.7279 263.061 58.3615 262.663 59.0587 262.391C59.756 262.119 60.5033 261.979 61.258 261.979H72.2727V260.838C72.2726 260.809 72.2788 260.779 72.2908 260.752C72.3028 260.724 72.3205 260.699 72.3427 260.678C72.365 260.657 72.3914 260.641 72.4205 260.63C72.4496 260.618 72.4808 260.612 72.5123 260.612H78.2586C78.29 260.612 78.3212 260.618 78.3503 260.63C78.3794 260.641 78.4059 260.657 78.4281 260.678C78.4504 260.699 78.468 260.724 78.48 260.752C78.4921 260.779 78.4982 260.809 78.4982 260.838V261.979H82.088V260.838C82.0879 260.809 82.0941 260.779 82.1061 260.752C82.1181 260.724 82.1358 260.699 82.1581 260.678C82.1803 260.657 82.2067 260.641 82.2358 260.63C82.2649 260.618 82.2961 260.612 82.3276 260.612H88.0739C88.1054 260.612 88.1366 260.618 88.1656 260.63C88.1947 260.641 88.2212 260.657 88.2434 260.678C88.2657 260.699 88.2834 260.724 88.2954 260.752C88.3074 260.779 88.3136 260.809 88.3135 260.838V261.979H91.9076V260.838C91.9075 260.809 91.9137 260.779 91.9257 260.752C91.9377 260.724 91.9554 260.699 91.9777 260.678C91.9999 260.657 92.0264 260.641 92.0555 260.63C92.0845 260.618 92.1157 260.612 92.1472 260.612H97.8935C97.925 260.612 97.9562 260.618 97.9853 260.63C98.0144 260.641 98.0408 260.657 98.0631 260.678C98.0853 260.699 98.103 260.724 98.115 260.752C98.127 260.779 98.1332 260.809 98.1331 260.838V261.979H101.723V260.838C101.723 260.809 101.729 260.779 101.741 260.752C101.753 260.724 101.771 260.699 101.793 260.678C101.815 260.657 101.842 260.641 101.871 260.63C101.9 260.618 101.931 260.612 101.963 260.612H107.709C107.74 260.612 107.771 260.618 107.801 260.63C107.83 260.641 107.856 260.657 107.878 260.678C107.901 260.699 107.918 260.724 107.93 260.752C107.942 260.779 107.948 260.809 107.948 260.838V261.979H111.538V260.838C111.538 260.809 111.544 260.779 111.556 260.752C111.568 260.724 111.586 260.699 111.608 260.678C111.631 260.657 111.657 260.641 111.686 260.63C111.715 260.618 111.746 260.612 111.778 260.612H117.524C117.556 260.612 117.587 260.618 117.616 260.63C117.645 260.641 117.671 260.657 117.694 260.678C117.716 260.699 117.734 260.724 117.746 260.752C117.758 260.779 117.764 260.809 117.764 260.838V261.979H121.358V260.838C121.358 260.809 121.364 260.779 121.376 260.752C121.388 260.724 121.406 260.699 121.428 260.678C121.45 260.657 121.477 260.641 121.506 260.63C121.535 260.618 121.566 260.612 121.597 260.612H127.344C127.375 260.612 127.406 260.618 127.436 260.63C127.465 260.641 127.491 260.657 127.513 260.678C127.536 260.699 127.553 260.724 127.565 260.752C127.577 260.779 127.583 260.809 127.583 260.838V261.979H131.173V260.838C131.173 260.809 131.179 260.779 131.191 260.752C131.203 260.724 131.221 260.699 131.243 260.678C131.266 260.657 131.292 260.641 131.321 260.63C131.35 260.618 131.381 260.612 131.413 260.612H176.425C176.456 260.612 176.487 260.618 176.516 260.63C176.546 260.641 176.572 260.657 176.594 260.678C176.617 260.699 176.634 260.724 176.646 260.752C176.658 260.779 176.664 260.809 176.664 260.838V261.979H180.258V260.838C180.258 260.809 180.264 260.779 180.277 260.752C180.289 260.724 180.306 260.699 180.328 260.678C180.351 260.657 180.377 260.641 180.406 260.63C180.435 260.618 180.467 260.612 180.498 260.612H186.244C186.308 260.613 186.368 260.637 186.413 260.679C186.458 260.721 186.483 260.779 186.484 260.838V261.979H190.074V260.838C190.074 260.809 190.08 260.779 190.092 260.752C190.104 260.724 190.122 260.699 190.144 260.678C190.166 260.657 190.192 260.641 190.222 260.63C190.251 260.618 190.282 260.612 190.313 260.612H196.06C196.091 260.612 196.122 260.618 196.151 260.63C196.18 260.641 196.207 260.657 196.229 260.678C196.251 260.699 196.269 260.724 196.281 260.752C196.293 260.779 196.299 260.809 196.299 260.838V261.979H199.889V260.838C199.889 260.809 199.895 260.779 199.907 260.752C199.919 260.724 199.937 260.699 199.959 260.678C199.981 260.657 200.008 260.641 200.037 260.63C200.066 260.618 200.097 260.612 200.129 260.612H205.875C205.906 260.612 205.938 260.618 205.967 260.63C205.996 260.641 206.022 260.657 206.045 260.678C206.067 260.699 206.084 260.724 206.096 260.752C206.108 260.779 206.115 260.809 206.115 260.838V261.979H209.709V260.838C209.709 260.809 209.715 260.779 209.727 260.752C209.739 260.724 209.756 260.699 209.779 260.678C209.801 260.657 209.827 260.641 209.857 260.63C209.886 260.618 209.917 260.612 209.948 260.612H215.695C215.757 260.613 215.818 260.637 215.862 260.68C215.906 260.722 215.93 260.779 215.93 260.838V261.979H219.524V260.838C219.524 260.809 219.53 260.779 219.542 260.752C219.554 260.724 219.572 260.699 219.594 260.678C219.616 260.657 219.643 260.641 219.672 260.63C219.701 260.618 219.732 260.612 219.764 260.612H225.51C225.541 260.612 225.573 260.618 225.602 260.63C225.631 260.641 225.657 260.657 225.679 260.678C225.702 260.699 225.719 260.724 225.731 260.752C225.743 260.779 225.75 260.809 225.749 260.838V261.979H229.339V260.838C229.339 260.809 229.345 260.779 229.357 260.752C229.369 260.724 229.387 260.699 229.409 260.678C229.432 260.657 229.458 260.641 229.487 260.63C229.516 260.618 229.547 260.612 229.579 260.612H235.325C235.357 260.612 235.388 260.618 235.417 260.63C235.446 260.641 235.473 260.657 235.495 260.678C235.517 260.699 235.535 260.724 235.547 260.752C235.559 260.779 235.565 260.809 235.565 260.838V261.979H252.324C253.079 261.979 253.826 262.119 254.524 262.391C255.221 262.663 255.855 263.061 256.388 263.564C256.922 264.067 257.345 264.664 257.634 265.32C257.923 265.977 258.071 266.681 258.071 267.392H258.069Z" fill="#090814"/>
<path d="M313.628 275.194H0V276H313.628V275.194Z" fill="#CCCCCC"/>
<path d="M242.685 164.353H171.469V162.97H139.177V164.353H67.6675C66.3903 164.353 65.1653 164.831 64.262 165.682C63.3587 166.533 62.851 167.687 62.8506 168.89V260.758C62.8506 261.354 62.9752 261.944 63.2173 262.494C63.4594 263.045 63.8142 263.545 64.2616 263.967C64.7089 264.388 65.24 264.722 65.8244 264.95C66.4089 265.178 67.0353 265.296 67.668 265.296H242.685C243.318 265.296 243.944 265.178 244.529 264.95C245.113 264.722 245.644 264.388 246.091 263.967C246.539 263.545 246.894 263.045 247.136 262.494C247.378 261.944 247.502 261.354 247.502 260.758V168.89C247.502 168.294 247.378 167.704 247.136 167.153C246.894 166.603 246.539 166.102 246.091 165.681C245.644 165.259 245.113 164.925 244.529 164.697C243.944 164.469 243.318 164.352 242.685 164.352V164.353Z" fill="#090814"/>
<path d="M155.317 206.503C161.225 206.503 166.014 201.992 166.014 196.426C166.014 190.861 161.225 186.349 155.317 186.349C149.409 186.349 144.62 190.861 144.62 196.426C144.62 201.992 149.409 206.503 155.317 206.503Z" stroke="#D0CDE1" stroke-width="2" stroke-miterlimit="10"/>
<path d="M151.894 210.131C157.801 210.131 162.59 205.619 162.59 200.054C162.59 194.489 157.801 189.977 151.894 189.977C145.986 189.977 141.197 194.489 141.197 200.054C141.197 205.619 145.986 210.131 151.894 210.131Z" fill="#F2F2F2"/>
<path d="M38.6305 79.234C49.1406 79.234 57.6608 71.2075 57.6608 61.3063C57.6608 51.4051 49.1406 43.3785 38.6305 43.3785C28.1203 43.3785 19.6001 51.4051 19.6001 61.3063C19.6001 71.2075 28.1203 79.234 38.6305 79.234Z" fill="#F2F2F2"/>
<path d="M45.2628 40.0024C43.5397 39.7959 41.7958 39.7959 40.0727 40.0024C36.2341 40.4774 32.6206 41.9797 29.661 44.3311C26.7014 46.6825 24.5199 49.7843 23.3751 53.2685C22.8546 54.8564 22.5598 56.5022 22.4984 58.1631C22.4899 58.394 22.4839 58.6274 22.4839 58.8612C22.4892 63.9025 24.6174 68.7359 28.4014 72.3006C32.1853 75.8653 37.316 77.8702 42.6673 77.8752C43.0952 77.8752 43.5265 77.8615 43.951 77.8373C44.9459 77.7785 45.9348 77.6496 46.9092 77.4516C51.5628 76.5087 55.713 74.047 58.6268 70.5012C61.5406 66.9554 63.0306 62.5537 62.8336 58.0733C62.6367 53.593 60.7654 49.3224 57.5503 46.0157C54.3352 42.709 49.9832 40.5791 45.2628 40.002V40.0024ZM48.9853 76.3492H48.9823C47.3568 76.8717 45.6649 77.1886 43.951 77.2916C43.5269 77.3186 43.0974 77.3319 42.6673 77.3319C37.4697 77.3254 32.487 75.3773 28.8119 71.9148C25.1367 68.4523 23.0692 63.7581 23.0628 58.8616C23.0628 58.6278 23.0684 58.3944 23.0773 58.1635C23.2128 54.8001 24.3211 51.5356 26.2827 48.7225C28.2443 45.9093 30.9846 43.6546 34.2074 42.2019C37.4303 40.7492 41.0132 40.1537 44.5692 40.4798C48.1252 40.8058 51.519 42.041 54.3841 44.0519C57.2491 46.0628 59.4764 48.7729 60.8254 51.8896C62.1744 55.0062 62.5937 58.4109 62.0382 61.7357C61.4826 65.0605 59.9732 68.1792 57.6731 70.7547C55.3731 73.3302 52.3697 75.2647 48.9874 76.3492H48.9853Z" fill="#090814"/>
<path d="M42.9562 41.4772H42.3794V45.2799H42.9562V41.4772Z" fill="#090814"/>
<path d="M29.8224 46.377L29.4146 46.7612L32.2688 49.45L32.6766 49.0658L29.8224 46.377Z" fill="#090814"/>
<path d="M24.2134 58.59V59.1333H28.2499V58.59H24.2134Z" fill="#090814"/>
<path d="M29.4144 70.9615L29.8223 71.3457L32.6765 68.6568L32.2687 68.2726L29.4144 70.9615Z" fill="#090814"/>
<path d="M52.6571 49.0655L53.0649 49.4497L55.9192 46.7608L55.5114 46.3766L52.6571 49.0655Z" fill="#090814"/>
<path d="M57.084 58.59V59.1333H61.1205V58.59H57.084Z" fill="#090814"/>
<path d="M53.0656 68.2726L52.6577 68.6568L55.512 71.3457L55.9198 70.9615L53.0656 68.2726Z" fill="#090814"/>
<path d="M42.9562 72.4429H42.3794V76.2456H42.9562V72.4429Z" fill="#090814"/>
<path d="M43.5321 57.7753C43.2826 57.599 42.9791 57.5037 42.6672 57.5037C42.3553 57.5037 42.0518 57.599 41.8023 57.7753C41.6314 57.8975 41.4907 58.0532 41.3898 58.2316C41.262 58.4613 41.2067 58.7207 41.2305 58.9791C41.2542 59.2375 41.356 59.4841 41.5237 59.6897C41.6915 59.8954 41.9183 60.0515 42.1772 60.1396C42.4361 60.2277 42.7164 60.2441 42.985 60.1869C43.2535 60.1297 43.4991 60.0013 43.6926 59.8168C43.8861 59.6324 44.0195 59.3996 44.0771 59.1459C44.1346 58.8923 44.1139 58.6284 44.0173 58.3856C43.9208 58.1427 43.7524 57.9309 43.5321 57.7753ZM42.667 59.6766C42.4377 59.676 42.2181 59.5899 42.056 59.4372C41.8939 59.2845 41.8025 59.0775 41.8018 58.8616C41.8029 58.6967 41.8561 58.5359 41.9546 58.3997C42.0391 58.2843 42.1537 58.1914 42.2874 58.1301C42.4211 58.0687 42.5694 58.0408 42.7179 58.0492C42.8664 58.0576 43.01 58.102 43.135 58.1781C43.26 58.2541 43.362 58.3592 43.4311 58.4833C43.5003 58.6073 43.5344 58.7461 43.53 58.8862C43.5255 59.0262 43.4828 59.1629 43.4059 59.2828C43.329 59.4028 43.2206 59.502 43.091 59.571C42.9615 59.6399 42.8153 59.6761 42.6666 59.6762L42.667 59.6766Z" fill="#090814"/>
<path d="M45.2618 35.2295H40.0718V40.1188H45.2618V35.2295Z" fill="#090814"/>
<path d="M42.667 36.0449C46.4888 36.0449 49.5869 35.0112 49.5869 33.7361C49.5869 32.4609 46.4888 31.4272 42.667 31.4272C38.8452 31.4272 35.7471 32.4609 35.7471 33.7361C35.7471 35.0112 38.8452 36.0449 42.667 36.0449Z" fill="#090814"/>
<path d="M43.5321 48.5391H41.8022V57.7745H43.5321V48.5391Z" fill="#090814"/>
<path d="M261.436 67.7205C260.033 62.1689 260.267 56.7007 262.67 51.3438C262.695 51.0123 262.859 50.7038 263.125 50.4861C263.392 50.2683 263.739 50.159 264.091 50.1821L277.22 51.0596C277.572 51.0836 277.899 51.238 278.13 51.489C278.361 51.7401 278.477 52.0672 278.452 52.3987L277.218 68.7757C277.193 69.1072 277.029 69.4157 276.763 69.6335C276.496 69.8513 276.149 69.9606 275.797 69.9374L262.671 69.0595C262.319 69.0361 261.991 68.8819 261.759 68.6308C261.528 68.3797 261.412 68.0523 261.436 67.7205Z" fill="#F2F2F2"/>
<path d="M262.815 62.8416C261.692 60.1059 262.41 56.3435 263.608 52.3132C263.632 52.0026 263.785 51.7136 264.035 51.5096C264.284 51.3055 264.609 51.2031 264.939 51.2249L276.222 51.979C276.552 52.0012 276.858 52.1457 277.075 52.3808C277.292 52.616 277.4 52.9224 277.377 53.233L276.28 67.8059C276.256 68.1164 276.103 68.4053 275.853 68.6094C275.604 68.8134 275.278 68.9158 274.949 68.8942L267.959 68.427C266.491 68.3274 265.126 67.6834 264.161 66.6362C263.197 65.5891 262.713 64.2244 262.815 62.8416Z" fill="white"/>
<path d="M270.627 63.5554L269.593 63.3882C269.752 63.0351 269.843 62.6586 269.864 62.2756C270.027 60.226 270.044 58.157 270.13 56.1029C270.128 56.0278 270.103 55.9549 270.058 55.893C270.012 55.8311 269.949 55.7829 269.876 55.7541C269.802 55.7254 269.721 55.7173 269.642 55.7309C269.564 55.7445 269.491 55.7792 269.433 55.8308L266.837 57.8571C266.432 58.1731 267.012 58.7149 267.414 58.4013L269.278 56.9469C269.221 58.2927 269.164 59.6384 269.107 60.9842C269.08 61.6291 269.163 62.4143 268.882 63.0217C268.844 63.1037 268.794 63.1803 268.733 63.2495L267.589 63.0641C267.315 63.0197 266.966 63.2354 267.087 63.5373C267.152 63.6855 267.249 63.8197 267.371 63.9315C267.493 64.0434 267.638 64.1305 267.797 64.1877C267.957 64.2449 268.126 64.2708 268.297 64.264C268.467 64.2571 268.634 64.2177 268.787 64.1479C268.846 64.1233 268.904 64.0947 268.959 64.0625L270.413 64.2979C270.924 64.3805 271.145 63.6393 270.627 63.5554Z" fill="#2C7BE5"/>
<path d="M326.563 88.5499C325.241 83.3212 325.462 78.1715 327.725 73.1261C327.748 72.8139 327.903 72.5234 328.154 72.3183C328.405 72.1132 328.732 72.0103 329.063 72.0322L341.429 72.8589C341.76 72.8814 342.069 73.0268 342.286 73.2633C342.504 73.4997 342.613 73.8079 342.59 74.1201L341.428 89.5439C341.404 89.8561 341.25 90.1466 340.999 90.3517C340.748 90.5568 340.421 90.6597 340.09 90.6379L327.724 89.8112C327.393 89.7887 327.084 89.6432 326.867 89.4068C326.649 89.1703 326.54 88.8622 326.563 88.5499Z" fill="#F2F2F2"/>
<path d="M327.861 83.9548C326.803 81.3784 327.48 77.8349 328.608 74.0391C328.63 73.7467 328.775 73.4747 329.01 73.2826C329.245 73.0905 329.551 72.9941 329.862 73.0145L340.488 73.7247C340.798 73.7457 341.087 73.8818 341.291 74.1032C341.495 74.3247 341.597 74.6133 341.576 74.9057L340.542 88.631C340.52 88.9233 340.375 89.1954 340.14 89.3875C339.905 89.5796 339.599 89.676 339.288 89.6556L332.706 89.2154C331.323 89.1216 330.037 88.5151 329.128 87.5289C328.22 86.5427 327.764 85.2573 327.861 83.9548Z" fill="white"/>
<path d="M334.798 81.3376C334.939 81.2755 335.073 81.1991 335.196 81.1099C335.526 80.8539 335.769 80.5134 335.898 80.1297C336.026 79.7459 336.033 79.3354 335.918 78.9478C335.42 77.2222 333.229 77.2117 331.716 77.4193C331.227 77.4862 331.435 78.1852 331.92 78.1183C332.94 77.9784 334.54 77.8651 335.086 78.9144C335.211 79.1608 335.256 79.4366 335.214 79.7069C335.173 79.9771 335.047 80.2296 334.852 80.4323C334.62 80.652 334.314 80.789 333.987 80.8201C333.67 80.6902 333.325 80.6297 332.98 80.6432C332.623 80.6589 332.423 81.1474 332.785 81.3183C333.104 81.4681 333.456 81.5463 333.812 81.5469C334.108 81.6814 334.355 81.8952 334.523 82.1615C334.69 82.4278 334.771 82.7348 334.754 83.0439C334.685 83.4697 334.44 83.8523 334.072 84.1078C333.704 84.3632 333.243 84.4704 332.791 84.4059H332.781C332.298 84.3144 332.091 85.0125 332.577 85.1048C333.228 85.2204 333.902 85.0874 334.45 84.7352C334.997 84.3829 335.374 83.8402 335.496 83.2265C335.503 83.1932 335.509 83.1598 335.514 83.1265C335.545 82.7968 335.497 82.4647 335.373 82.155C335.249 81.8453 335.052 81.5659 334.798 81.3376Z" fill="#2C7BE5"/>
<path d="M326.714 25.8922C325.123 19.5981 325.388 13.3992 328.112 7.32557C328.141 6.94979 328.327 6.6001 328.629 6.35322C328.931 6.10634 329.325 5.98244 329.724 6.00872L344.608 7.00351C345.007 7.03057 345.378 7.20559 345.64 7.49018C345.902 7.77477 346.033 8.14568 346.006 8.52151L344.606 27.0869C344.577 27.4627 344.391 27.8124 344.089 28.0593C343.787 28.3061 343.394 28.43 342.995 28.4038L328.112 27.4094C327.713 27.3823 327.342 27.2074 327.08 26.923C326.818 26.6386 326.687 26.2679 326.714 25.8922Z" fill="#F2F2F2"/>
<path d="M328.278 20.3603C327.006 17.2586 327.819 12.9932 329.177 8.42392C329.204 8.07197 329.378 7.74442 329.661 7.51318C329.944 7.28194 330.312 7.16589 330.686 7.1905L343.479 8.04543C343.853 8.07084 344.201 8.23476 344.446 8.50127C344.691 8.76778 344.815 9.11511 344.789 9.46709L343.544 25.9889C343.517 26.3408 343.343 26.6684 343.06 26.8996C342.777 27.1309 342.409 27.2469 342.035 27.2223L334.111 26.6927C332.447 26.5799 330.898 25.8498 329.805 24.6627C328.711 23.4755 328.162 21.9282 328.278 20.3603Z" fill="white"/>
<path d="M336.146 12.0464C335.827 11.9606 335.491 11.9408 335.163 11.9883C334.835 12.0359 334.522 12.1497 334.245 12.3219C333.967 12.4942 333.733 12.7208 333.558 12.9863C333.382 13.2519 333.27 13.55 333.228 13.8603C333.059 15.296 334.698 16.4291 336.118 16.0389C336.232 16.0052 336.329 15.9307 336.386 15.8314C336.444 15.732 336.458 15.6154 336.426 15.5063C336.394 15.3971 336.319 15.3039 336.215 15.2463C336.112 15.1888 335.989 15.1713 335.872 15.1977C334.831 15.4839 333.722 14.4254 334.32 13.4798C334.456 13.2514 334.662 13.0674 334.912 12.9522C335.161 12.837 335.442 12.7961 335.717 12.8348C335.95 12.8957 336.165 13.0073 336.344 13.1605C336.523 13.3137 336.662 13.5044 336.749 13.7172C337.259 14.8007 336.653 15.9007 335.85 16.6883C335.392 17.1373 334.854 17.4864 334.36 17.8975C334.119 18.0685 333.92 18.2851 333.774 18.5332C333.628 18.7813 333.539 19.0555 333.512 19.3381C333.525 19.6558 333.63 19.9641 333.816 20.2297C334.001 20.4953 334.26 20.708 334.565 20.8448C335.354 21.2273 336.252 21.1056 337.092 20.9782C337.679 20.8892 337.43 20.0487 336.846 20.137C336.111 20.2483 335.012 20.4172 334.546 19.6936C334.147 19.0757 334.969 18.5332 335.416 18.2047C336.54 17.3787 337.678 16.3102 337.847 14.9075C337.984 13.7591 337.363 12.4443 336.146 12.0464Z" fill="#2C7BE5"/>
<path d="M216.787 56.614C221.979 55.094 227.537 56.7378 232.757 55.3351C233.958 55.0256 235.093 54.5234 236.112 53.8505C236.982 53.2294 237.798 52.5448 238.554 51.8033C240.124 50.3401 241.83 48.8036 244.189 48.8205C247.296 48.8427 249.681 51.0169 251.752 52.9367C252.045 53.208 252.496 52.7836 252.203 52.5119C250.3 50.748 248.244 48.887 245.535 48.3602C244.32 48.1064 243.052 48.2056 241.898 48.6448C240.897 49.0732 239.983 49.6623 239.196 50.3857C238.362 51.1064 237.592 51.8908 236.747 52.6002C235.864 53.3565 234.848 53.961 233.743 54.3862C231.35 55.2839 228.725 55.3939 226.18 55.3661C222.984 55.3335 219.713 55.1283 216.618 56.0344C216.227 56.1489 216.394 56.7285 216.789 56.6136L216.787 56.614Z" fill="#3F3D56"/>
<path d="M252.893 48.889L254.489 51.5393L255.259 52.8219C255.396 53.0496 255.537 53.2761 255.671 53.5071C255.753 53.6482 255.932 53.9029 255.761 54.0367C255.611 54.106 255.442 54.1309 255.276 54.1081C254.995 54.1081 254.713 54.1028 254.432 54.1L252.849 54.0851L249.578 54.0541C249.493 54.0541 249.412 54.0857 249.352 54.142C249.292 54.1983 249.259 54.2747 249.259 54.3544C249.259 54.434 249.292 54.5104 249.352 54.5667C249.412 54.623 249.493 54.6547 249.578 54.6547C251.476 54.6728 253.377 54.7107 255.275 54.7091C255.607 54.7385 255.939 54.6524 256.207 54.4672C256.339 54.344 256.427 54.1847 256.458 54.0119C256.488 53.8392 256.461 53.6618 256.379 53.5047C256.191 53.1198 255.976 52.7477 255.734 52.391L255.039 51.2365L253.443 48.5863C253.398 48.5222 253.329 48.4767 253.249 48.4593C253.17 48.4419 253.086 48.4538 253.016 48.4926C252.946 48.5314 252.894 48.5942 252.871 48.668C252.848 48.7418 252.856 48.821 252.893 48.8894L252.893 48.889Z" fill="#3F3D56"/>
<path d="M294.721 49.1168C297.221 45.9236 301.491 44.5466 304.066 41.4139C304.665 40.7013 305.128 39.8967 305.436 39.0358C305.676 38.272 305.852 37.4917 305.963 36.7019C306.23 35.1098 306.546 33.4132 308.027 32.4039C309.977 31.0737 312.525 31.4002 314.753 31.7033C314.818 31.7127 314.884 31.6973 314.937 31.6608C314.99 31.6243 315.025 31.5695 315.035 31.5085C315.045 31.4475 315.028 31.3853 314.989 31.3356C314.951 31.2859 314.893 31.2527 314.828 31.2434C312.781 30.9649 310.592 30.692 308.644 31.5345C307.762 31.9013 307.018 32.5116 306.512 33.2846C306.096 33.9856 305.812 34.7494 305.673 35.5419C305.502 36.3525 305.406 37.1747 305.223 37.9829C305.041 38.8367 304.701 39.6536 304.218 40.3966C303.162 41.9915 301.576 43.1939 299.974 44.2782C297.963 45.639 295.824 46.9256 294.331 48.8294C294.143 49.0712 294.53 49.3594 294.719 49.1176L294.721 49.1168Z" fill="#3F3D56"/>
<path d="M313.047 28.022L315.999 29.2667L317.428 29.869C317.682 29.9762 317.937 30.0798 318.19 30.1914C318.345 30.2595 318.649 30.3643 318.595 30.5679C318.559 30.7065 318.362 30.8178 318.249 30.896C318.023 31.0536 317.792 31.2056 317.565 31.3607L316.281 32.2318L313.626 34.0319C313.559 34.0796 313.515 34.1501 313.503 34.2282C313.491 34.3063 313.512 34.3858 313.562 34.4493C313.611 34.5129 313.686 34.5555 313.768 34.5679C313.851 34.5803 313.936 34.5616 314.004 34.5156C315.544 33.4705 317.1 32.4406 318.629 31.3797C318.914 31.2187 319.127 30.965 319.228 30.6662C319.256 30.4931 319.226 30.3159 319.141 30.1598C319.057 30.0037 318.923 29.8765 318.757 29.7964C318.364 29.5908 317.957 29.4111 317.538 29.2587L316.254 28.7166L313.302 27.4718C313.225 27.4447 313.14 27.4465 313.065 27.4767C312.989 27.5069 312.929 27.5633 312.897 27.6341C312.864 27.705 312.862 27.7849 312.89 27.8574C312.919 27.9298 312.975 27.9892 313.049 28.0233L313.047 28.022Z" fill="#3F3D56"/>
<path d="M346.48 37.5044H325.172C324.936 37.5051 324.71 37.4177 324.543 37.2613C324.376 37.105 324.282 36.8925 324.281 36.6707C324.281 36.4489 324.373 36.2358 324.539 36.0785C324.705 35.9212 324.931 35.8324 325.166 35.8317H346.478C346.594 35.8313 346.71 35.8526 346.818 35.8943C346.925 35.936 347.024 35.9974 347.106 36.0748C347.189 36.1522 347.255 36.2442 347.3 36.3456C347.345 36.4469 347.368 36.5556 347.368 36.6654C347.369 36.7753 347.346 36.8841 347.302 36.9857C347.257 37.0873 347.192 37.1797 347.11 37.2576C347.028 37.3355 346.93 37.3974 346.823 37.4398C346.715 37.4821 346.6 37.5041 346.483 37.5044H346.48Z" fill="#2C7BE5"/>
<path d="M294.036 73.6686C296.847 77.2585 301.646 78.8059 304.541 82.3276C305.214 83.1282 305.735 84.0321 306.082 84.9996C306.352 85.858 306.55 86.7351 306.674 87.6228C306.974 89.4129 307.33 91.3195 308.995 92.4541C311.187 93.9483 314.052 93.5827 316.556 93.2413C316.629 93.2307 316.703 93.2476 316.763 93.2886C316.822 93.3295 316.862 93.391 316.873 93.4596C316.885 93.5282 316.867 93.5982 316.823 93.6543C316.78 93.7103 316.714 93.7478 316.642 93.7585C314.34 94.0717 311.878 94.378 309.69 93.4312C308.698 93.0188 307.863 92.3328 307.294 91.4638C306.827 90.6765 306.508 89.8188 306.353 88.9288C306.162 88.0179 306.053 87.0936 305.847 86.1851C305.642 85.2254 305.259 84.3071 304.717 83.4719C303.529 81.679 301.747 80.3279 299.947 79.1086C297.687 77.5769 295.279 76.1327 293.603 73.9927C293.392 73.7227 293.826 73.3966 294.039 73.6703L294.036 73.6686Z" fill="#3F3D56"/>
<path d="M314.883 97.0162L317.836 95.7715L319.264 95.1693C319.518 95.062 319.774 94.9585 320.026 94.8468C320.181 94.7787 320.486 94.6739 320.432 94.4703C320.395 94.3317 320.198 94.2204 320.086 94.1422C319.859 93.9846 319.629 93.8327 319.401 93.6775L318.118 92.8064L315.463 91.0063C315.396 90.9586 315.352 90.8881 315.34 90.81C315.328 90.7319 315.349 90.6524 315.398 90.5889C315.448 90.5253 315.522 90.4827 315.605 90.4703C315.688 90.4579 315.772 90.4767 315.84 90.5226C317.381 91.5678 318.936 92.5976 320.465 93.6585C320.751 93.8195 320.964 94.0732 321.064 94.372C321.093 94.5452 321.062 94.7223 320.978 94.8784C320.893 95.0345 320.759 95.1617 320.594 95.2418C320.201 95.4474 319.793 95.6271 319.374 95.7795L318.091 96.3217L315.138 97.5664C315.062 97.5935 314.977 97.5917 314.901 97.5615C314.826 97.5313 314.766 97.4749 314.733 97.4041C314.701 97.3332 314.698 97.2533 314.727 97.1808C314.755 97.1084 314.812 97.049 314.885 97.015L314.883 97.0162Z" fill="#3F3D56"/>
<path d="M342.724 95.5389H325.024C324.831 95.5354 324.648 95.4611 324.512 95.3318C324.377 95.2025 324.301 95.0286 324.3 94.8471C324.299 94.6657 324.374 94.4911 324.508 94.3608C324.642 94.2304 324.825 94.1546 325.017 94.1495H342.724C342.916 94.153 343.1 94.2273 343.235 94.3566C343.37 94.4858 343.446 94.6598 343.447 94.8412C343.448 95.0227 343.373 95.1972 343.239 95.3276C343.106 95.458 342.923 95.5338 342.73 95.5389H342.724Z" fill="#2C7BE5"/>
<path d="M346.129 13.2057C349.657 13.8518 353.072 11.6812 353.758 8.3577C354.444 5.03416 352.14 1.8162 348.612 1.17017C345.084 0.524137 341.668 2.69468 340.982 6.01822C340.297 9.34175 342.601 12.5597 346.129 13.2057Z" fill="#2C7BE5"/>
<path d="M346.264 9.36735C346.12 9.34132 345.989 9.27196 345.891 9.16972L345.887 9.16358L344.607 7.80464C344.498 7.67639 344.444 7.51316 344.459 7.34894C344.474 7.18473 344.555 7.03218 344.686 6.92305C344.817 6.81393 344.988 6.75664 345.163 6.76311C345.338 6.76958 345.503 6.83932 345.625 6.9578L346.452 7.83817L349.333 5.43503C349.468 5.32255 349.644 5.26514 349.824 5.27543C350.004 5.28572 350.172 5.36287 350.292 5.48991C350.411 5.61709 350.472 5.78368 350.461 5.95302C350.45 6.12236 350.368 6.28071 350.234 6.39336L346.846 9.21893C346.768 9.28392 346.674 9.33105 346.574 9.35668C346.473 9.38231 346.367 9.38574 346.265 9.36671L346.264 9.36735Z" fill="white"/>
<path d="M345.489 79.9809C349.271 80.6735 352.933 78.3465 353.668 74.7835C354.403 71.2205 351.933 67.7706 348.151 67.078C344.369 66.3854 340.707 68.7124 339.972 72.2754C339.236 75.8385 341.706 79.2883 345.489 79.9809Z" fill="#2C7BE5"/>
<path d="M345.634 75.8659C345.48 75.8379 345.34 75.7635 345.235 75.6539L345.228 75.6475L343.858 74.193C343.73 74.0567 343.665 73.8782 343.676 73.6966C343.688 73.515 343.776 73.3453 343.921 73.2247C344.065 73.1042 344.255 73.0427 344.448 73.0538C344.64 73.065 344.821 73.1478 344.949 73.284L345.836 74.2267L348.924 71.6505C348.995 71.5906 349.079 71.5446 349.169 71.5151C349.26 71.4856 349.355 71.4732 349.451 71.4787C349.546 71.4841 349.64 71.5073 349.726 71.5468C349.812 71.5863 349.889 71.6414 349.952 71.709L349.933 71.7256L349.953 71.7083C350.016 71.7757 350.065 71.8543 350.096 71.9395C350.128 72.0247 350.141 72.1149 350.135 72.2049C350.129 72.2949 350.105 72.3829 350.063 72.4639C350.021 72.5449 349.962 72.6173 349.89 72.677L346.257 75.7074C346.174 75.7772 346.074 75.8278 345.966 75.8553C345.858 75.8828 345.744 75.8864 345.634 75.8659Z" fill="white"/>
<path d="M278.193 58.4098C282.209 59.1452 286.097 56.6745 286.878 52.8914C287.658 49.1083 285.035 45.4454 281.02 44.71C277.004 43.9747 273.116 46.4453 272.335 50.2284C271.555 54.0115 274.177 57.6744 278.193 58.4098Z" fill="#2C7BE5"/>
<path d="M278.347 54.0413C278.183 54.0114 278.034 53.9324 277.923 53.8162L277.916 53.8088L276.461 52.2645C276.325 52.1198 276.255 51.9301 276.268 51.7371C276.28 51.5442 276.373 51.3638 276.527 51.2357C276.681 51.1075 276.882 51.0421 277.087 51.0538C277.292 51.0655 277.483 51.1534 277.619 51.2981L278.561 52.3005L281.84 49.565C281.993 49.4374 282.194 49.3723 282.398 49.3839C282.603 49.3955 282.794 49.4829 282.93 49.6269C283.065 49.7717 283.135 49.9613 283.122 50.1541C283.11 50.3469 283.017 50.5272 282.863 50.6553L279.009 53.8723C278.92 53.9463 278.814 54 278.699 54.0292C278.585 54.0584 278.464 54.0623 278.348 54.0406L278.347 54.0413Z" fill="white"/>
</g>
<defs>
<clipPath id="clip0_38_4">
<rect width="355" height="276" fill="white"/>
</clipPath>
</defs>
</svg>
