<svg width="685" height="543" viewBox="0 0 685 543" fill="none" xmlns="http://www.w3.org/2000/svg">
<g clip-path="url(#clip0_33_7)">
<path d="M445.265 117.115C437.964 104.485 429.312 91.0002 415.762 86.8762C400.07 82.1006 383.951 91.588 370.278 100.95C329.389 128.947 290.011 159.289 252.326 191.836L252.368 192.326L340.385 185.978C361.582 184.449 383.508 182.709 402.241 172.222C409.349 168.244 416.278 162.926 424.334 162.556C434.341 162.096 443.067 169.405 449.925 177.042C490.489 222.219 502.227 291.303 547.736 330.995C519.04 256.98 484.776 185.463 445.265 117.115Z" fill="#F2F2F2"/>
<path d="M685 483.069H680.983C646.014 435.555 613.111 386.482 582.275 335.849C560.74 300.522 540.274 264.512 520.878 227.818C519.735 225.658 518.596 223.494 517.46 221.326C509.433 206.013 501.594 190.596 493.943 175.077C487.167 161.337 480.543 147.517 474.073 133.618C472.226 129.645 470.426 125.662 468.637 121.66C464.419 112.264 460.287 102.812 455.841 93.5399C451.357 84.1705 446.004 74.4129 438.391 67.3733C437.412 66.4558 436.389 65.5916 435.325 64.7842C434.12 63.8598 432.854 63.0246 431.536 62.285C431.405 62.2054 431.27 62.1355 431.136 62.0559C427.919 60.2611 424.377 59.1926 420.74 58.9195C413.171 58.4017 406.192 61.6773 399.623 65.2417C388.542 71.2854 377.628 77.6775 366.883 84.4181C331.181 106.857 297.491 132.624 266.226 161.406L265.987 161.625C225.221 199.067 188.783 241.368 157.416 287.666C156.455 289.1 154.189 287.726 155.16 286.295C158.968 280.649 162.856 275.067 166.823 269.547C196.408 228.374 230.079 190.593 267.272 156.837C271.433 153.053 275.641 149.323 279.896 145.645C300.788 127.557 322.668 110.754 345.426 95.3238C352.394 90.5946 359.443 86.0079 366.57 81.5636C371.292 78.6066 376.046 75.7091 380.832 72.8711C386.887 69.2868 392.971 65.7423 399.159 62.4262C405.223 59.1602 411.659 56.233 418.59 56.124C423.584 56.0286 428.516 57.2838 432.909 59.7679C433.04 59.8475 433.185 59.9174 433.318 60.0066C436.003 61.5783 438.496 63.4839 440.744 65.682C450.807 75.4293 457.538 90.7231 462.774 102.462C465.411 108.387 468.08 114.285 470.781 120.157C480.977 142.47 491.57 164.584 502.56 186.499C508.434 198.198 514.419 209.848 520.516 221.447C521.449 223.25 522.4 225.051 523.352 226.843C545.383 268.472 568.797 309.262 593.594 349.212C623.041 396.645 652.288 439.12 685 483.069Z" fill="#E4E4E4"/>
<path d="M315.065 324.014C315.065 324.014 310.446 335.237 311.532 336.84C312.619 338.443 298.22 331.496 298.22 331.496C298.22 331.496 302.838 320.273 302.838 318.937C302.838 317.601 315.065 324.014 315.065 324.014Z" fill="#FFB9B9"/>
<path d="M473.672 480.021C473.672 480.021 474.08 471.086 482.437 472.125L473.672 480.021Z" fill="#090814"/>
<path d="M471.314 471.519C473.624 471.519 475.497 469.56 475.497 467.144C475.497 464.728 473.624 462.769 471.314 462.769C469.003 462.769 467.13 464.728 467.13 467.144C467.13 469.56 469.003 471.519 471.314 471.519Z" fill="#2C7BE5"/>
<path d="M471.813 474.511H470.632V483.155H471.813V474.511Z" fill="#090814"/>
<path d="M189.689 217.36C189.689 219.548 189.621 221.718 189.485 223.869C188.725 236.276 185.728 248.421 180.652 259.664C180.612 259.76 180.567 259.849 180.527 259.938C180.291 260.459 180.048 260.98 179.799 261.495C178.29 264.674 176.615 267.765 174.782 270.754C166.412 284.472 154.94 295.824 141.38 303.805C127.819 311.786 112.588 316.151 97.0311 316.514L97.9688 372.918L110.199 366.183L112.383 370.525L98.0607 378.412L99.8116 483.169L99.8313 484.568L90.3747 486.77L90.3944 485.364L93.3717 316.521C80.8502 316.333 68.4891 313.545 57.0061 308.32C45.5232 303.095 35.1471 295.536 26.4804 286.083C25.8836 285.438 25.2934 284.773 24.7163 284.114C24.6901 284.087 24.6704 284.059 24.6507 284.039C17.4297 275.803 11.5898 266.352 7.37701 256.083C7.46882 256.193 7.56718 256.296 7.659 256.406C-1.86199 233.121 -2.50769 206.91 5.8542 183.143C14.2161 159.376 30.9524 139.854 52.6336 128.577C52.9615 128.405 53.2959 128.241 53.6238 128.069C75.0704 117.265 99.6155 115.283 122.394 122.515C145.172 129.747 164.521 145.665 176.605 167.115C177.183 168.13 177.74 169.165 178.278 170.208C185.784 184.683 189.707 200.893 189.689 217.36Z" fill="#E5E5E5"/>
<path d="M176.922 259.991C245.571 259.991 301.221 201.79 301.221 129.996C301.221 58.2011 245.571 0 176.922 0C108.274 0 52.623 58.2011 52.623 129.996C52.623 201.79 108.274 259.991 176.922 259.991Z" fill="#2C7BE5"/>
<path opacity="0.2" d="M85.1442 43.1689C58.1588 109.189 87.4546 185.589 150.582 213.814C174.533 224.522 201.094 227.092 226.516 221.16C251.939 215.229 274.937 201.095 292.264 180.756C265.28 246.778 192.229 277.422 129.102 249.204C65.9746 220.985 36.6709 144.584 63.653 78.5636C68.9391 65.6287 76.1974 53.6767 85.1448 43.1737L85.1442 43.1689Z" fill="black"/>
<path d="M183.649 492.14L170.953 488.416L170.979 486.989L174.782 270.754L174.973 259.972L174.979 259.657L175.642 221.88L176.606 167.122V167.115L177.261 129.996H177.609L178.278 170.208L179.15 222.545L179.773 259.684V259.958L179.799 261.488V261.495L181.006 333.887L181.131 341.081L183.623 490.7L183.649 492.14Z" fill="#090814"/>
<path d="M197.034 325.061L176.487 336.374L179.35 342.062L199.897 330.749L197.034 325.061Z" fill="#090814"/>
<path d="M174.488 518.309H115.878V519.681H174.488V518.309Z" fill="#CBCBCB"/>
<path d="M282.038 541.628H223.428V543H282.038V541.628Z" fill="#CBCBCB"/>
<path d="M449.266 523.796H390.656V525.168H449.266V523.796Z" fill="#CBCBCB"/>
<path d="M597.496 465.491V425.592C597.496 425.592 612.364 453.879 597.496 465.491Z" fill="#F1F1F1"/>
<path d="M423.415 467.977L395.311 440.995C395.311 440.995 425.29 448.67 423.415 467.977Z" fill="#F1F1F1"/>
<path d="M131.979 477.586V437.687C131.979 437.687 146.846 465.974 131.979 477.586Z" fill="#F1F1F1"/>
<path d="M132.897 477.579L104.793 450.597C104.793 450.597 134.772 458.272 132.897 477.579Z" fill="#F1F1F1"/>
<path d="M232.971 506.392V456.777C232.971 456.777 251.459 491.952 232.971 506.392Z" fill="#F1F1F1"/>
<path d="M234.113 506.383L199.166 472.83C199.166 472.83 236.445 482.374 234.113 506.383Z" fill="#F1F1F1"/>
<path d="M533.385 500.322L533.025 501.646L422.962 468.862L340.05 487.977L234.014 506.92L233.87 506.879L183.649 492.14L170.952 488.416L132.175 477.031L99.8313 484.568L90.3747 486.77L69.8154 491.564L69.5334 490.226L90.3944 485.364L99.8116 483.169L132.215 475.618L132.372 475.659L170.979 486.989L183.623 490.7L234.08 505.514L339.794 486.633L423.002 467.449L423.166 467.49L533.385 500.322Z" fill="#CBCBCB"/>
<path d="M336.479 83.2878L344.87 76.2695C338.351 75.515 335.673 79.2351 334.574 82.1781C329.482 79.9669 323.938 82.8639 323.938 82.8639L340.726 89.2382C339.879 86.8723 338.405 84.8079 336.476 83.2871L336.479 83.2878Z" fill="#090814"/>
<path d="M549.812 130.579L558.203 123.561C551.684 122.807 549.006 126.527 547.907 129.47C542.815 127.258 537.271 130.155 537.271 130.155L554.059 136.53C553.212 134.164 551.738 132.099 549.809 130.579L549.812 130.579Z" fill="#090814"/>
<path d="M318.117 214.286L326.508 207.267C319.989 206.513 317.311 210.233 316.212 213.176C311.119 210.965 305.575 213.862 305.575 213.862L322.364 220.236C321.517 217.87 320.042 215.806 318.113 214.285L318.117 214.286Z" fill="#090814"/>
<path d="M257.245 515.881L265.295 518.645L280.661 491.261L268.78 487.181L257.245 515.881Z" fill="#FFB9B9"/>
<path d="M324.865 523.122H333.741L335.357 495.525L322.271 495.944L324.865 523.122Z" fill="#FFB9B9"/>
<path d="M292.918 331.721L295.147 327.053L314.12 336.974L313.562 341.059L317.189 346.02C317.189 346.02 323.328 349.522 322.211 361.194L321.097 372.282L319.702 386.58L329.467 421.889L334.489 468.578L338.116 506.22L320.541 505.345L304.358 444.066L275.896 510.013L256.367 504.758L283.152 439.397L286.501 411.967C286.501 411.967 284.271 397.377 294.871 387.456L293.196 382.203V375.731L287.616 344.853L292.918 331.721Z" fill="#090814"/>
<path opacity="0.2" d="M292.396 398.452L291.765 398.638L304.041 444.159L304.673 443.973L292.396 398.452Z" fill="black"/>
<path d="M293.476 389.498H320.819V386.58H293.476V389.498Z" fill="#D6D6E3"/>
<path d="M320.82 391.25C321.436 391.25 321.936 389.943 321.936 388.331C321.936 386.72 321.436 385.413 320.82 385.413C320.203 385.413 319.704 386.72 319.704 388.331C319.704 389.943 320.203 391.25 320.82 391.25Z" fill="#D6D6E3"/>
<path d="M321.54 317.987C325.48 310.448 322.831 300.996 315.622 296.875C308.414 292.754 299.376 295.524 295.436 303.063C291.495 310.602 294.144 320.054 301.353 324.175C308.561 328.296 317.599 325.526 321.54 317.987Z" fill="#FFB9B9"/>
<path d="M285.728 304.97C292.995 304.97 298.887 298.809 298.887 291.208C298.887 283.607 292.995 277.446 285.728 277.446C278.46 277.446 272.568 283.607 272.568 291.208C272.568 298.809 278.46 304.97 285.728 304.97Z" fill="#090814"/>
<path d="M269.028 289.734C268.509 291.558 268.357 293.474 268.581 295.362C268.806 297.25 269.403 299.068 270.333 300.703C271.264 302.338 272.509 303.753 273.989 304.859C275.469 305.965 277.153 306.738 278.933 307.13C280.713 307.521 282.552 307.522 284.332 307.133C286.113 306.744 287.797 305.973 289.279 304.869C290.76 303.764 292.007 302.351 292.939 300.717C293.872 299.084 294.471 297.266 294.697 295.378C293.755 298.689 291.656 301.508 288.818 303.276C285.98 305.043 282.61 305.63 279.377 304.919C276.145 304.209 273.286 302.252 271.369 299.439C269.451 296.626 268.616 293.162 269.028 289.734Z" fill="#090814"/>
<path d="M321.014 306.204C321.4 309.761 320.654 313.353 318.89 316.421C317.127 319.49 314.445 321.864 311.26 323.177C308.075 324.49 304.565 324.667 301.274 323.682C297.983 322.697 295.095 320.604 293.056 317.728C291.018 314.852 289.943 311.353 289.999 307.773C290.055 304.194 291.238 300.733 293.366 297.928C295.493 295.123 298.445 293.13 301.765 292.258C305.085 291.386 308.588 291.683 311.73 293.104C314.329 290.91 317.55 291.592 320.17 293.905C323.132 296.521 324.011 298.317 326.308 302.615C324.049 302.951 323.273 305.873 321.014 306.204Z" fill="#090814"/>
<path d="M266.338 352.987C266.504 357.598 266.834 366.672 266.834 367.135C266.834 367.624 273.412 381.867 276.254 387.998C276.456 388.43 276.638 388.821 276.798 389.164C277.018 389.639 277.363 390.039 277.793 390.316C278.223 390.592 278.72 390.734 279.225 390.724L291.644 390.491C292.325 390.479 292.976 390.193 293.461 389.691C293.946 389.19 294.227 388.512 294.246 387.799L295.631 330.658C295.635 330.469 295.604 330.282 295.538 330.106C295.472 329.931 295.374 329.771 295.248 329.636C295.122 329.501 294.972 329.394 294.806 329.32C294.64 329.247 294.461 329.209 294.281 329.209H278.267C277.59 329.209 276.927 329.409 276.354 329.785C275.781 330.161 275.321 330.698 275.026 331.335L267.34 347.967C266.619 349.53 266.275 351.254 266.338 352.987Z" fill="#2C7BE5"/>
<path d="M294.463 383.878C297.649 381.858 300.513 379.327 302.948 376.378C308.607 369.722 312.048 361.325 312.756 352.45C313.387 344.856 311.946 339.213 308.473 335.672C304.058 331.173 298.05 331.827 297.796 331.857L297.527 331.889L293.459 335.49L294.611 336.914L298.254 333.69C299.369 333.632 303.921 333.622 307.246 337.021C310.307 340.152 311.564 345.288 310.984 352.287C310.311 360.737 307.043 368.734 301.667 375.082C299.348 377.888 296.629 380.303 293.607 382.242L294.463 383.878Z" fill="#2C7BE5"/>
<path d="M271.349 362.168L271.23 362.777L292.94 367.434L293.059 366.825L271.349 362.168Z" fill="#090814"/>
<path d="M285.661 329.199L284.244 365.304L284.838 365.33L286.255 329.225L285.661 329.199Z" fill="#090814"/>
<path d="M266.338 352.987C266.504 357.598 266.834 366.672 266.834 367.135C266.834 367.624 273.412 381.867 276.254 387.998L270.957 355.832C270.752 354.594 270.237 353.436 269.463 352.475C268.69 351.514 267.686 350.785 266.555 350.363C266.377 351.225 266.304 352.107 266.338 352.987Z" fill="#090814"/>
<path d="M298.882 420.398C298.413 419.766 298.083 419.034 297.914 418.254C297.745 417.473 297.742 416.664 297.904 415.882C298.067 415.1 298.391 414.365 298.855 413.729C299.318 413.092 299.91 412.57 300.587 412.198L299.511 399.743L306.588 397.213L307.872 414.824C308.392 416.055 308.463 417.442 308.07 418.724C307.678 420.006 306.851 421.092 305.744 421.779C304.638 422.466 303.329 422.704 302.065 422.45C300.802 422.196 299.671 421.466 298.888 420.398H298.882Z" fill="#FFB7B7"/>
<path d="M294.25 345.229C294.111 343.338 294.579 341.452 295.579 339.87C296.579 338.287 298.055 337.098 299.773 336.49C301.288 335.967 302.923 335.968 304.437 336.494C306.057 337.071 307.463 338.167 308.455 339.625C309.448 341.083 309.977 342.831 309.968 344.621L310.498 407.871L297.957 408.347L294.25 345.229Z" fill="#F2F2F2"/>
<path d="M332.504 520.307C332.504 520.307 325.769 520.396 324.559 520.08C323.348 519.765 321.71 530.809 325.315 531.353C328.919 531.898 343.598 532.035 343.598 532.035C343.598 532.035 355.013 530.793 354.008 527.63C353.003 524.467 337.184 519.154 337.184 519.154C337.184 519.154 334.942 515.272 332.504 520.307Z" fill="#090814"/>
<path d="M264.37 517.341C264.37 517.341 257.878 515.485 256.798 514.833C255.718 514.18 251.232 524.317 254.551 525.879C257.87 527.442 271.935 531.808 271.935 531.808C271.935 531.808 283.228 533.908 283.096 530.579C282.965 527.25 269.17 517.584 269.17 517.584C269.17 517.584 268.04 513.209 264.37 517.341Z" fill="#090814"/>
</g>
<defs>
<clipPath id="clip0_33_7">
<rect width="685" height="543" fill="white"/>
</clipPath>
</defs>
</svg>
