<svg width="144" height="89" viewBox="0 0 144 89" fill="none" xmlns="http://www.w3.org/2000/svg">
<g clip-path="url(#clip0_45_98)">
<path d="M123.622 70.0683H15.5653C14.8278 70.0674 14.1208 69.7868 13.5993 69.2881C13.0778 68.7894 12.7844 68.1133 12.7834 67.4081V3.69167C12.7841 3.17491 12.999 2.67948 13.3811 2.31407C13.7632 1.94867 14.2813 1.74313 14.8217 1.74255H124.331C124.881 1.74313 125.408 1.95223 125.797 2.32397C126.185 2.69572 126.404 3.19974 126.405 3.72547V67.4078C126.404 68.113 126.11 68.7891 125.589 69.2878C125.067 69.7865 124.36 70.0671 123.623 70.068L123.622 70.0683Z" fill="#F2F2F2"/>
<path d="M119.681 66.7842H18.9744C17.498 66.7842 16.2971 65.7087 16.2971 64.3868V8.90198C16.2971 7.92164 17.1871 7.1239 18.281 7.1239H120.341C121.454 7.1239 122.358 7.93462 122.358 8.93125V64.3868C122.358 65.7087 121.157 66.7842 119.681 66.7842Z" fill="white"/>
<path d="M126.366 4.0231H12.7439V2.66861C12.7449 1.96088 13.0395 1.28245 13.563 0.782163C14.0865 0.281873 14.7961 0.000579472 15.5362 0H123.573C124.313 0.000579472 125.023 0.281873 125.547 0.782163C126.07 1.28245 126.365 1.96088 126.366 2.66861L126.366 4.0231Z" fill="#2C7BE5"/>
<path d="M17.8185 2.70633C18.2174 2.70633 18.5408 2.39709 18.5408 2.01562C18.5408 1.63416 18.2174 1.32492 17.8185 1.32492C17.4196 1.32492 17.0962 1.63416 17.0962 2.01562C17.0962 2.39709 17.4196 2.70633 17.8185 2.70633Z" fill="white"/>
<path d="M20.5602 2.70633C20.9591 2.70633 21.2825 2.39709 21.2825 2.01562C21.2825 1.63416 20.9591 1.32492 20.5602 1.32492C20.1613 1.32492 19.8379 1.63416 19.8379 2.01562C19.8379 2.39709 20.1613 2.70633 20.5602 2.70633Z" fill="white"/>
<path d="M23.3016 2.70633C23.7005 2.70633 24.0239 2.39709 24.0239 2.01562C24.0239 1.63416 23.7005 1.32492 23.3016 1.32492C22.9027 1.32492 22.5793 1.63416 22.5793 2.01562C22.5793 2.39709 22.9027 2.70633 23.3016 2.70633Z" fill="white"/>
<path d="M66.3483 59.6256H31.3029C30.5206 59.6247 29.7705 59.3272 29.2173 58.7982C28.6641 58.2692 28.3529 57.5519 28.3521 56.8038V16.3068C28.3526 15.7472 28.5853 15.2108 28.999 14.8151C29.4127 14.4194 29.9737 14.1969 30.5588 14.1963H67.057C67.6513 14.1971 68.221 14.4232 68.6413 14.825C69.0616 15.2269 69.298 15.7718 69.2988 16.3401V56.8035C69.298 57.5516 68.9869 58.2689 68.4338 58.798C67.8806 59.327 67.1306 59.6247 66.3483 59.6256ZM30.5588 14.5184C30.063 14.5187 29.5876 14.7072 29.237 15.0424C28.8863 15.3776 28.6891 15.8322 28.6885 16.3063V56.8033C28.6893 57.4659 28.9649 58.1012 29.4549 58.5698C29.9448 59.0383 30.6092 59.3019 31.3021 59.3026H66.3483C67.0412 59.3019 67.7055 59.0383 68.1955 58.5698C68.6855 58.1012 68.9611 57.4659 68.9618 56.8033V16.3401C68.9613 15.8571 68.7604 15.3941 68.4033 15.0526C68.0462 14.7111 67.562 14.519 67.057 14.5185L30.5588 14.5184Z" fill="#CCCCCC"/>
<path d="M34.0009 56.8035H63.6505C64.366 56.8035 65.0522 56.5317 65.5581 56.0478C66.0641 55.564 66.3483 54.9078 66.3483 54.2236V19.629C66.3483 19.2902 66.2785 18.9547 66.143 18.6417C66.0074 18.3287 65.8087 18.0443 65.5581 17.8047C65.3076 17.5652 65.0102 17.3751 64.6829 17.2455C64.3556 17.1158 64.0047 17.0491 63.6505 17.0491H34.0009C33.6466 17.0491 33.2957 17.1158 32.9684 17.2455C32.6411 17.3751 32.3437 17.5652 32.0932 17.8047C31.8426 18.0443 31.6439 18.3287 31.5083 18.6417C31.3728 18.9547 31.303 19.2902 31.303 19.629V54.2236C31.303 54.9078 31.5872 55.564 32.0932 56.0478C32.5991 56.5317 33.2853 56.8035 34.0009 56.8035Z" fill="#E6E6E6"/>
<path d="M57.0036 24.1075H40.6476C40.3569 24.1075 40.078 23.997 39.8724 23.8004C39.6668 23.6038 39.5513 23.3371 39.5513 23.059C39.5513 22.781 39.6668 22.5143 39.8724 22.3177C40.078 22.1211 40.3569 22.0106 40.6476 22.0106H57.0036C57.2943 22.0106 57.5732 22.1211 57.7788 22.3177C57.9844 22.5143 58.0999 22.781 58.0999 23.059C58.0999 23.3371 57.9844 23.6038 57.7788 23.8004C57.5732 23.997 57.2943 24.1075 57.0036 24.1075Z" fill="#2C7BE5"/>
<path d="M57.0036 46.8427H40.6476C40.5037 46.8427 40.3611 46.8156 40.2281 46.7629C40.0951 46.7102 39.9742 46.633 39.8724 46.5357C39.7706 46.4383 39.6898 46.3227 39.6347 46.1955C39.5796 46.0683 39.5513 45.932 39.5513 45.7943C39.5513 45.6566 39.5796 45.5203 39.6347 45.3931C39.6898 45.2659 39.7706 45.1503 39.8724 45.053C39.9742 44.9556 40.0951 44.8784 40.2281 44.8257C40.3611 44.773 40.5037 44.7459 40.6476 44.7459H57.0036C57.2943 44.7459 57.5732 44.8564 57.7788 45.053C57.9844 45.2496 58.0999 45.5163 58.0999 45.7943C58.0999 46.0724 57.9844 46.3391 57.7788 46.5357C57.5732 46.7323 57.2943 46.8427 57.0036 46.8427Z" fill="white"/>
<path d="M57.0036 51.8413H40.6476C40.3569 51.8413 40.078 51.7309 39.8724 51.5343C39.6668 51.3376 39.5513 51.071 39.5513 50.7929C39.5513 50.5149 39.6668 50.2482 39.8724 50.0516C40.078 49.855 40.3569 49.7445 40.6476 49.7445H57.0036C57.2943 49.7445 57.5732 49.855 57.7788 50.0516C57.9844 50.2482 58.0999 50.5149 58.0999 50.7929C58.0999 51.071 57.9844 51.3376 57.7788 51.5343C57.5732 51.7309 57.2943 51.8413 57.0036 51.8413Z" fill="white"/>
<path d="M48.9098 39.506C52.5416 39.506 55.4859 36.6906 55.4859 33.2176C55.4859 29.7445 52.5416 26.9291 48.9098 26.9291C45.2779 26.9291 42.3337 29.7445 42.3337 33.2176C42.3337 36.6906 45.2779 39.506 48.9098 39.506Z" fill="white"/>
<path d="M91.2135 27.4552L88.3409 28.0342C88.3156 28.0393 88.2919 28.0499 88.2715 28.0652C88.2512 28.0805 88.2348 28.1 88.2237 28.1224C88.2125 28.1447 88.2068 28.1691 88.2071 28.1939C88.2074 28.2186 88.2137 28.2429 88.2254 28.265L88.4931 28.7693L75.502 35.0755C75.4621 35.0948 75.4319 35.1285 75.418 35.1692C75.4041 35.2099 75.4077 35.2541 75.4279 35.2923C75.4482 35.3304 75.4834 35.3593 75.526 35.3726C75.5685 35.3858 75.6148 35.3824 75.6547 35.3631L88.6457 29.0569L88.9135 29.5613C88.9252 29.5833 88.942 29.6025 88.9627 29.6173C88.9834 29.6322 89.0074 29.6422 89.0328 29.6468C89.0583 29.6513 89.0844 29.6502 89.1093 29.6435C89.1342 29.6368 89.1572 29.6247 89.1764 29.6082L91.3608 27.7329C91.3885 27.7093 91.4071 27.6775 91.414 27.6426C91.4208 27.6077 91.4155 27.5717 91.3987 27.54C91.3819 27.5083 91.3546 27.4829 91.3212 27.4675C91.2877 27.4522 91.2498 27.4479 91.2135 27.4552Z" fill="#E6E6E6"/>
<path d="M91.2135 43.1293L88.3409 42.5503C88.3156 42.5452 88.2919 42.5346 88.2715 42.5193C88.2512 42.504 88.2348 42.4845 88.2237 42.4622C88.2125 42.4398 88.2068 42.4154 88.2071 42.3907C88.2074 42.3659 88.2137 42.3416 88.2254 42.3195L88.4931 41.8152L75.502 35.5091C75.4621 35.4897 75.4319 35.456 75.418 35.4153C75.4041 35.3747 75.4077 35.3304 75.4279 35.2923C75.4482 35.2541 75.4834 35.2252 75.526 35.2119C75.5685 35.1987 75.6148 35.2021 75.6547 35.2214L88.6457 41.5276L88.9135 41.0233C88.9252 41.0012 88.942 40.982 88.9627 40.9672C88.9834 40.9524 89.0074 40.9423 89.0328 40.9377C89.0583 40.9332 89.0844 40.9343 89.1093 40.941C89.1342 40.9477 89.1572 40.9598 89.1764 40.9763L91.3608 42.8514C91.3883 42.8751 91.4069 42.9069 91.4137 42.9417C91.4204 42.9766 91.415 43.0125 91.3983 43.0441C91.3815 43.0758 91.3543 43.1012 91.3209 43.1166C91.2876 43.1319 91.2498 43.1364 91.2135 43.1292V43.1293Z" fill="#E6E6E6"/>
<path d="M100.682 31.0433C99.9486 31.0433 99.2314 30.8352 98.6213 30.4454C98.0113 30.0557 97.5358 29.5016 97.255 28.8534C96.9743 28.2052 96.9008 27.492 97.0439 26.8038C97.1871 26.1157 97.5404 25.4836 98.0592 24.9875C98.578 24.4914 99.239 24.1535 99.9586 24.0166C100.678 23.8798 101.424 23.95 102.102 24.2185C102.78 24.487 103.359 24.9417 103.767 25.5251C104.174 26.1084 104.392 26.7943 104.392 27.4959C104.392 28.4367 104.001 29.339 103.305 30.0043C102.61 30.6695 101.666 31.0433 100.682 31.0433ZM100.682 24.271C100.015 24.271 99.3633 24.4601 98.8087 24.8145C98.2541 25.1688 97.8219 25.6725 97.5666 26.2618C97.3114 26.851 97.2446 27.4995 97.3747 28.125C97.5048 28.7506 97.826 29.3252 98.2977 29.7762C98.7693 30.2272 99.3702 30.5344 100.024 30.6588C100.679 30.7833 101.357 30.7194 101.973 30.4753C102.589 30.2312 103.116 29.8179 103.486 29.2875C103.857 28.7572 104.055 28.1337 104.055 27.4959C104.055 26.6406 103.699 25.8203 103.067 25.2155C102.434 24.6108 101.577 24.271 100.682 24.271Z" fill="#E6E6E6"/>
<path d="M100.682 46.6839C99.9486 46.6839 99.2314 46.4759 98.6213 46.0861C98.0113 45.6963 97.5358 45.1422 97.255 44.494C96.9743 43.8458 96.9008 43.1326 97.0439 42.4444C97.1871 41.7563 97.5404 41.1242 98.0592 40.6281C98.578 40.132 99.239 39.7942 99.9586 39.6573C100.678 39.5204 101.424 39.5907 102.102 39.8591C102.78 40.1276 103.359 40.5823 103.767 41.1657C104.174 41.7491 104.392 42.4349 104.392 43.1365C104.392 44.0773 104.001 44.9796 103.305 45.6449C102.61 46.3102 101.666 46.6839 100.682 46.6839ZM100.682 39.9116C100.015 39.9116 99.3633 40.1008 98.8087 40.4551C98.2541 40.8095 97.8219 41.3131 97.5666 41.9024C97.3114 42.4917 97.2446 43.1401 97.3747 43.7657C97.5048 44.3912 97.826 44.9659 98.2977 45.4169C98.7693 45.8679 99.3702 46.175 100.024 46.2994C100.679 46.4239 101.357 46.36 101.973 46.1159C102.589 45.8718 103.116 45.4585 103.486 44.9282C103.857 44.3978 104.055 43.7743 104.055 43.1365C104.055 42.2812 103.699 41.461 103.067 40.8562C102.434 40.2514 101.577 39.9116 100.682 39.9116Z" fill="#E6E6E6"/>
<path d="M100.388 29.2442C100.281 29.2446 100.177 29.2116 100.091 29.1503L100.086 29.1466L98.9662 28.3276C98.9131 28.29 98.8684 28.2427 98.8346 28.1884C98.8008 28.1341 98.7787 28.0739 98.7695 28.0114C98.7603 27.9488 98.7642 27.8851 98.781 27.8241C98.7978 27.763 98.8272 27.7057 98.8674 27.6556C98.9075 27.6055 98.9578 27.5635 99.0151 27.5321C99.0724 27.5007 99.1357 27.4806 99.2013 27.4728C99.2668 27.4651 99.3333 27.4699 99.3969 27.487C99.4605 27.5041 99.5199 27.5331 99.5716 27.5724L100.297 28.1044L102.011 25.9664C102.05 25.9169 102.1 25.8753 102.156 25.844C102.213 25.8128 102.275 25.7925 102.34 25.7843C102.405 25.7761 102.471 25.7802 102.534 25.7963C102.597 25.8125 102.656 25.8403 102.708 25.8783L102.697 25.8924L102.708 25.8783C102.813 25.9552 102.881 26.0686 102.898 26.1936C102.916 26.3186 102.88 26.4451 102.8 26.5453L100.785 29.0588C100.738 29.1167 100.678 29.1636 100.609 29.1957C100.541 29.2279 100.465 29.2446 100.389 29.2444L100.388 29.2442Z" fill="#2C7BE5"/>
<path d="M99.0728 44.6755C99.0254 44.6301 98.9988 44.5686 98.9988 44.5044C98.9988 44.4403 99.0254 44.3788 99.0728 44.3334L101.934 41.597C101.982 41.5531 102.046 41.5288 102.112 41.5293C102.179 41.5299 102.242 41.5554 102.289 41.6002C102.336 41.645 102.362 41.7056 102.363 41.769C102.363 41.8324 102.338 41.8935 102.292 41.9391L99.4306 44.6755C99.3831 44.7208 99.3188 44.7463 99.2517 44.7463C99.1846 44.7463 99.1203 44.7208 99.0728 44.6755Z" fill="#E6E6E6"/>
<path d="M102.123 44.6755C102.171 44.6301 102.197 44.5686 102.197 44.5045C102.197 44.4403 102.171 44.3788 102.123 44.3334L99.2618 41.5975C99.2141 41.5536 99.1502 41.5292 99.0839 41.5298C99.0176 41.5304 98.9542 41.5558 98.9074 41.6007C98.8605 41.6455 98.8339 41.7061 98.8333 41.7695C98.8326 41.8329 98.8581 41.894 98.9041 41.9396L101.766 44.6755C101.813 44.7208 101.877 44.7463 101.944 44.7463C102.012 44.7463 102.076 44.7208 102.123 44.6755Z" fill="#E6E6E6"/>
<path d="M107.088 35.4219C107.077 35.4219 107.066 35.4211 107.055 35.4196C107.026 35.4156 106.998 35.4061 106.973 35.3916C106.948 35.3772 106.925 35.3581 106.908 35.3355L105.529 33.5673C105.524 33.5599 105.516 33.554 105.507 33.5503C105.498 33.5467 105.488 33.5453 105.478 33.5464C105.469 33.5475 105.46 33.551 105.452 33.5566C105.444 33.5621 105.438 33.5696 105.434 33.5781L104.727 35.1593C104.709 35.2005 104.677 35.235 104.637 35.2582C104.597 35.2814 104.551 35.292 104.504 35.2885C104.457 35.2851 104.413 35.2677 104.377 35.239C104.341 35.2102 104.316 35.1714 104.304 35.128L102.894 29.9077C102.882 29.8665 102.884 29.823 102.899 29.7828C102.914 29.7427 102.941 29.7076 102.977 29.6822C103.012 29.6567 103.055 29.642 103.1 29.6399C103.144 29.6379 103.188 29.6485 103.226 29.6705L108.056 32.4527C108.096 32.4758 108.127 32.5103 108.146 32.5514C108.164 32.5925 108.169 32.638 108.159 32.6817C108.149 32.7254 108.125 32.7651 108.09 32.7951C108.056 32.8252 108.012 32.8441 107.966 32.8492L106.18 33.0472C106.17 33.0483 106.161 33.0518 106.153 33.0574C106.145 33.0629 106.139 33.0704 106.135 33.0789C106.132 33.0875 106.13 33.0969 106.131 33.1061C106.132 33.1154 106.136 33.1242 106.142 33.1317L107.52 34.8999C107.556 34.9455 107.571 35.0027 107.562 35.059C107.554 35.1152 107.522 35.166 107.474 35.2L107.222 35.38C107.183 35.4075 107.136 35.4222 107.088 35.4219Z" fill="#2C7BE5"/>
<path d="M114.93 39.2671H108.859C108.412 39.2671 107.983 39.0972 107.667 38.7948C107.351 38.4924 107.173 38.0823 107.173 37.6546C107.173 37.227 107.351 36.8168 107.667 36.5145C107.983 36.2121 108.412 36.0422 108.859 36.0422H114.93C115.377 36.0422 115.806 36.2121 116.123 36.5145C116.439 36.8168 116.616 37.227 116.616 37.6546C116.616 38.0823 116.439 38.4924 116.123 38.7948C115.806 39.0972 115.377 39.2671 114.93 39.2671Z" fill="#2C7BE5"/>
<path d="M41.3659 28.1232L41.1134 27.9432C41.0658 27.9092 41.0343 27.8585 41.0257 27.8023C41.0172 27.746 41.0323 27.6889 41.0677 27.6433L42.446 25.875C42.4518 25.8676 42.4555 25.8587 42.4566 25.8495C42.4577 25.8402 42.4563 25.8309 42.4524 25.8223C42.4485 25.8137 42.4424 25.8063 42.4346 25.8007C42.4268 25.7952 42.4176 25.7916 42.4079 25.7905L40.622 25.5942C40.5755 25.589 40.5319 25.5701 40.4972 25.5401C40.4626 25.51 40.4386 25.4704 40.4287 25.4267C40.4188 25.383 40.4234 25.3374 40.4419 25.2963C40.4604 25.2552 40.4919 25.2207 40.532 25.1976L45.3612 22.4154C45.3993 22.3935 45.4434 22.3829 45.4879 22.385C45.5323 22.3871 45.5751 22.4018 45.6108 22.4273C45.6465 22.4527 45.6734 22.4877 45.6882 22.5279C45.703 22.568 45.705 22.6114 45.6939 22.6527L44.2835 27.873C44.2719 27.9163 44.2463 27.9551 44.2105 27.9839C44.1747 28.0127 44.1303 28.03 44.0836 28.0335C44.037 28.0369 43.9903 28.0263 43.9503 28.0031C43.9103 27.98 43.8788 27.9454 43.8603 27.9043L43.1536 26.323C43.1497 26.3145 43.1436 26.3071 43.1358 26.3015C43.1279 26.2959 43.1187 26.2924 43.1091 26.2913C43.0994 26.2902 43.0896 26.2916 43.0806 26.2953C43.0717 26.2989 43.0639 26.3048 43.058 26.3122L41.6796 28.0805C41.662 28.1031 41.64 28.1222 41.6147 28.1366C41.5894 28.151 41.5614 28.1605 41.5323 28.1645C41.5214 28.166 41.5105 28.1668 41.4996 28.1669C41.4514 28.1669 41.4045 28.1519 41.366 28.1243L41.3659 28.1232Z" fill="#3F3D56"/>
<path d="M31.97 30.3986C31.9707 29.9713 32.1485 29.5618 32.4644 29.2596C32.7803 28.9575 33.2086 28.7875 33.6554 28.7868H39.7263C40.1735 28.7868 40.6024 28.9567 40.9186 29.2591C41.2349 29.5615 41.4125 29.9716 41.4125 30.3993C41.4125 30.8269 41.2349 31.2371 40.9186 31.5395C40.6024 31.8418 40.1735 32.0117 39.7263 32.0117H33.6554C33.2084 32.0111 32.7798 31.8409 32.4639 31.5384C32.1479 31.236 31.9703 30.8261 31.97 30.3986Z" fill="#3F3D56"/>
<path d="M41.9861 86.6728H0.168628C0.123905 86.6728 0.0810148 86.6558 0.049391 86.6256C0.0177673 86.5954 0 86.5543 0 86.5116C0 86.4688 0.0177673 86.4278 0.049391 86.3976C0.0810148 86.3673 0.123905 86.3503 0.168628 86.3503H41.9859C42.0306 86.3503 42.0735 86.3673 42.1051 86.3976C42.1368 86.4278 42.1545 86.4688 42.1545 86.5116C42.1545 86.5543 42.1368 86.5954 42.1051 86.6256C42.0735 86.6558 42.0308 86.6728 41.9861 86.6728Z" fill="#CCCCCC"/>
<path d="M143.831 86.6728H114.154C114.11 86.6728 114.067 86.6558 114.035 86.6256C114.004 86.5954 113.986 86.5543 113.986 86.5116C113.986 86.4688 114.004 86.4278 114.035 86.3976C114.067 86.3673 114.11 86.3503 114.154 86.3503H143.831C143.876 86.3503 143.919 86.3673 143.95 86.3976C143.982 86.4278 144 86.4688 144 86.5116C144 86.5543 143.982 86.5954 143.95 86.6256C143.919 86.6558 143.876 86.6728 143.831 86.6728H143.831Z" fill="#CCCCCC"/>
<path d="M137.589 81.1851L138.26 83.7525L135.307 84.5227L135.039 81.8271L137.589 81.1851Z" fill="#FFB9B9"/>
<path d="M126.851 84.3942V86.8329L123.897 87.3465L123.361 86.0634L124.435 83.8812L126.851 84.3942Z" fill="#FFB9B9"/>
<path d="M132.756 57.8237L132.354 61.2894L132.622 67.9641C132.622 67.9641 132.622 68.6057 133.025 68.8626C133.241 69.0034 137.991 81.6987 137.991 81.6987C137.991 81.6987 136.918 82.9818 134.904 82.5972L134.501 81.314C134.501 81.314 133.964 79.6453 133.696 79.2602C133.427 78.8751 129.4 71.045 129.4 71.045L127.522 67.8358L126.985 72.2C126.985 72.2 128.059 77.7195 127.79 80.2867C127.522 82.8539 126.985 85.5495 126.985 85.5495L123.023 84.9595C123.008 84.5453 123.092 81.5703 123.092 81.5703V81.1852L122.287 71.3015L120.811 58.3371L132.756 57.8237Z" fill="#090814"/>
<path d="M123.629 34.4622C125.631 34.4622 127.253 32.9106 127.253 30.9965C127.253 29.0824 125.631 27.5308 123.629 27.5308C121.628 27.5308 120.005 29.0824 120.005 30.9965C120.005 32.9106 121.628 34.4622 123.629 34.4622Z" fill="#FFB9B9"/>
<path d="M126.784 31.0606L128.26 34.5264L124.77 36.9653L122.622 33.3711L126.784 31.0606Z" fill="#FFB9B9"/>
<path d="M126.985 33.6917L128.326 33.0501L129.132 34.8472C129.132 34.8472 134.367 36.3875 133.964 43.4473C133.562 50.507 132.622 53.2026 132.622 53.2026C132.622 53.2026 134.904 57.8236 133.562 58.337C132.22 58.8504 120.81 60.7759 120.542 58.9786C120.273 57.1812 121.481 46.6561 121.481 46.6561C121.481 46.6561 121.079 39.0824 124.434 37.5425L123.763 36.1306L126.985 33.6917Z" fill="#E6E6E6"/>
<path d="M119.602 58.5938C119.602 58.5938 116.515 61.6744 118.26 62.4446C120.006 63.2148 121.079 58.9788 121.079 58.9788L119.602 58.5938Z" fill="#FFB9B9"/>
<path d="M125.546 86.1283L126.945 85.6288C126.945 85.6288 128.472 89 127.2 89H123.893C123.893 89 121.985 88.3757 120.967 88.3757C119.95 88.3757 118.042 86.5027 119.441 85.6288C120.84 84.7549 122.621 85.0044 122.621 85.0044L123.129 83.8808L123.765 85.6288C123.765 85.6288 124.528 86.8774 125.546 86.1283Z" fill="#090814"/>
<path d="M136.784 83.3674C136.784 83.3674 137.624 82.8602 138.077 83.0495C138.529 83.2389 138.797 85.2927 138.797 85.2927C138.797 85.2927 140.138 86.8331 137.186 87.0897C134.233 87.3463 133.561 86.8329 133.293 86.0629C133.024 85.2928 133.561 84.5225 133.561 84.5225L134.367 84.2657C134.367 84.2657 135.307 83.6241 135.038 83.3672C134.769 83.1103 135.038 82.597 135.038 82.597C135.038 82.597 135.978 84.3943 136.784 83.3674Z" fill="#090814"/>
<path d="M124.869 30.9409C124.854 30.8288 124.828 30.7183 124.79 30.6111C124.595 30.2199 123.835 30.3344 123.7 29.9213C123.673 29.8404 123.679 29.7525 123.653 29.671C123.607 29.5719 123.529 29.4894 123.431 29.4356C123.333 29.3818 123.219 29.3595 123.107 29.3719C122.883 29.4015 122.663 29.4556 122.452 29.5331C121.921 29.6772 121.356 29.6221 120.808 29.566C120.563 29.5581 120.323 29.4984 120.105 29.3912C119.998 29.3352 119.912 29.2474 119.861 29.1409C119.811 29.0345 119.797 28.9152 119.823 28.8009C119.896 28.5883 120.139 28.4714 120.249 28.2736C120.423 27.9595 120.21 27.5538 120.351 27.2252C120.577 26.6978 121.433 26.8038 121.868 26.414C121.973 26.3201 122.05 26.1985 122.151 26.0996C122.451 25.8062 122.925 25.7494 123.352 25.7899C123.779 25.8305 124.199 25.9503 124.628 25.9431C125.035 25.9362 125.462 25.8179 125.837 25.9691C126.057 26.077 126.251 26.2291 126.405 26.4151L127.366 27.4237C127.498 27.5428 127.6 27.6893 127.664 27.8519C127.722 28.0451 127.668 28.2526 127.693 28.4523C127.749 28.9076 128.195 29.2516 128.255 29.7065C128.267 29.8476 128.26 29.9896 128.234 30.129L128.099 31.079C128.093 31.1715 128.067 31.2619 128.023 31.345C127.984 31.409 127.925 31.4595 127.881 31.5205C127.756 31.6927 127.768 31.9205 127.706 32.1214C127.644 32.3224 127.422 32.5211 127.228 32.4242C127.101 32.3616 127.017 31.8387 126.864 31.7032C126.649 31.5143 126.537 31.5376 126.273 31.5407C125.743 31.5479 125.038 31.5913 124.869 30.9409Z" fill="#2F2E41"/>
<path d="M125.508 38.4413C125.508 38.4413 129.535 39.9817 128.327 43.4474C127.119 46.9132 123.897 57.5671 123.897 57.5671L122.018 58.4656L121.481 59.8775L118.931 58.979L119.333 57.0543L120.273 55.1296L122.689 40.7533C122.689 40.7533 122.69 38.3129 125.508 38.4413Z" fill="#E6E6E6"/>
<path opacity="0.1" d="M128.528 44.1533L124.367 57.7594L122.622 59.4283L123.629 57.6953L128.528 44.1533Z" fill="black"/>
<path d="M13.3085 43.4819L14.1382 49.1233L17.641 55.1172C18.6555 55.9987 17.7331 58.1143 17.7331 58.1143L16.8115 57.4976L16.6271 56.4398C16.6271 56.4398 12.5712 52.0324 11.5573 50.9748C10.5434 49.9171 10.1746 44.0993 10.1746 44.0993L13.3085 43.4819Z" fill="#FBBEBE"/>
<path d="M10.2557 81.739C10.2557 81.739 10.4401 83.7664 10.3478 84.2953C10.2555 84.8242 7.49023 84.2072 7.49023 84.2072C7.9512 83.3257 8.22774 80.6814 8.22774 80.6814L10.2557 81.739Z" fill="#FBBEBE"/>
<path d="M23.9905 82.2681C23.9905 82.2681 24.2671 85.0888 24.175 85.6177C24.0828 86.1466 21.3174 85.5296 21.3174 85.5296C21.7783 84.6481 22.0549 82.0036 22.0549 82.0036L23.9905 82.2681Z" fill="#FBBEBE"/>
<path d="M18.3415 37.0485C20.1932 37.0485 21.6943 35.6131 21.6943 33.8424C21.6943 32.0717 20.1932 30.6363 18.3415 30.6363C16.4898 30.6363 14.9888 32.0717 14.9888 33.8424C14.9888 35.6131 16.4898 37.0485 18.3415 37.0485Z" fill="#FBBEBE"/>
<path d="M18.9205 36.8723C18.3674 37.5775 18.644 38.8115 18.644 38.8115C18.644 38.8115 13.0211 45.0707 12.0071 45.0707C10.993 45.0707 11.1774 40.6633 11.1774 40.6633C11.1774 40.6633 12.6523 38.989 13.4819 38.636C14.3116 38.283 15.7864 34.493 15.7864 34.493C15.7864 34.493 19.4736 36.167 18.9205 36.8723Z" fill="#FBBEBE"/>
<path d="M22.6999 48.8602L26.3081 54.6562C26.9666 55.6923 25.7417 60.9364 25.7417 60.9364L25.1886 72.1311L24.2669 83.4112V84.6452L21.225 84.5571L20.2105 72.4837L18.7356 63.4046L16.339 70.3679L12.3754 78.9181C12.037 79.9728 11.6211 81.0033 11.1308 82.0019L10.3933 83.2359L7.62866 82.9268L11.8222 69.3982L12.6516 60.5839C12.7438 55.6477 14.4026 52.9151 14.4026 52.9151V51.8573L22.6999 48.8602Z" fill="#090814"/>
<path d="M10.0714 83.8546C10.0714 83.8546 10.5324 83.1494 10.5324 83.4138C10.5324 83.6783 11.7307 84.384 11.7307 84.384C11.7307 84.384 12.929 84.2076 13.1134 85.5299C13.2978 86.8521 11.4541 87.1166 10.9933 87.0283C10.5325 86.9401 9.33406 87.1164 9.33406 87.1164C8.53947 87.2283 7.73203 87.2283 6.93744 87.1164C5.46259 86.9401 6.75303 84.5602 6.93744 84.1194C7.12186 83.6786 8.04363 84.0313 8.04363 84.0313C9.70273 84.4716 10.0714 83.8546 10.0714 83.8546Z" fill="#090814"/>
<path d="M23.8981 85.1764C23.8981 85.1764 24.359 84.4713 24.359 84.7356C24.359 84.9999 25.5573 85.7058 25.5573 85.7058C25.5573 85.7058 26.7556 85.5294 26.9401 86.8517C27.1245 88.1739 25.2808 88.4384 24.82 88.3501C24.3592 88.2619 23.1607 88.4382 23.1607 88.4382C22.3661 88.5501 21.5587 88.5501 20.7641 88.4382C19.2893 88.2619 20.5797 85.882 20.7641 85.4412C20.9485 85.0004 21.8703 85.3531 21.8703 85.3531C23.5294 85.7937 23.8981 85.1764 23.8981 85.1764Z" fill="#090814"/>
<path d="M17.5375 38.7233C19.842 36.4315 22.3308 42.161 22.3308 42.161C22.3308 42.161 23.1604 44.2766 22.5152 45.4225C21.87 46.5684 23.1604 49.1247 23.1604 49.1247C20.0037 51.6944 16.858 54.0695 13.9426 52.3862C14.3113 50.2706 13.113 49.2129 12.2833 47.1856C11.4537 45.1582 9.88672 45.5989 9.88672 45.5989C9.88672 45.5989 9.97884 43.3071 10.2554 41.4559C10.5319 39.6048 13.0208 38.9098 13.0208 38.9098C13.472 39.685 15.233 41.0151 17.5375 38.7233Z" fill="#2C7BE5"/>
<path d="M21.5939 42.4255L22.4236 48.0669L25.9264 54.0609C26.9409 54.9423 26.0185 57.0579 26.0185 57.0579L25.0969 56.4412L24.9125 55.3834C24.9125 55.3834 20.8566 50.976 19.8427 49.9184C18.8288 48.8607 18.46 43.0429 18.46 43.0429L21.5939 42.4255Z" fill="#FBBEBE"/>
<path d="M22.1468 43.3069L18.2753 43.7477C18.2753 43.7477 17.9988 39.4289 18.5834 38.3492C19.1681 37.2694 21.3173 38.4587 21.3173 38.4587C21.8701 38.5469 22.1468 43.3069 22.1468 43.3069Z" fill="#2C7BE5"/>
<path d="M22.0949 31.9864C19.6155 33.1714 21.046 36.4069 20.7531 37.7645C20.2738 39.9881 13.2057 38.8582 13.2057 38.8582C12.3458 38.7103 11.8217 29.5612 16.5311 29.6415C18.9053 29.6827 20.5478 30.4034 22.0949 31.9864Z" fill="#090814"/>
<path d="M20.5838 34.7989C20.7745 34.7989 20.9291 34.5625 20.9291 34.2708C20.9291 33.9792 20.7745 33.7427 20.5838 33.7427C20.3931 33.7427 20.2385 33.9792 20.2385 34.2708C20.2385 34.5625 20.3931 34.7989 20.5838 34.7989Z" fill="#FBBEBE"/>
</g>
<defs>
<clipPath id="clip0_45_98">
<rect width="144" height="89" fill="white"/>
</clipPath>
</defs>
</svg>
